<?xml version="1.0" encoding="UTF-8" standalone="no"?>
<!DOCTYPE svg PUBLIC "-//W3C//DTD SVG 1.1//EN"
        "http://www.w3.org/Graphics/SVG/1.1/DTD/svg11.dtd">
<!-- Generated by graphviz version 12.1.1 (20240910.0053)
 -->
<!-- Title: INFRA Pages: 1 -->
<svg width="139pt" height="188pt"
     viewBox="0.00 0.00 139.14 188.00" xmlns="http://www.w3.org/2000/svg">
    <g id="graph0" class="graph" transform="scale(1 1) rotate(0) translate(4 184)">
        <title>INFRA</title>
        <polygon fill="white" stroke="none" points="-4,4 -4,-184 135.14,-184 135.14,4 -4,4"/>
        <!-- CloudinaryService -->
        <g id="node1" class="node">
            <title>CloudinaryService</title>
            <path fill="#e6e6e6" stroke="black" stroke-width="2"
                  d="M118.38,-180C118.38,-180 12.77,-180 12.77,-180 6.77,-180 0.77,-174 0.77,-168 0.77,-168 0.77,-120 0.77,-120 0.77,-114 6.77,-108 12.77,-108 12.77,-108 118.38,-108 118.38,-108 124.38,-108 130.38,-114 130.38,-120 130.38,-120 130.38,-168 130.38,-168 130.38,-174 124.38,-180 118.38,-180"/>
            <text text-anchor="middle" x="65.57" y="-148.2" font-family="Arial" font-size="14.00">CloudinaryService
            </text>
            <text text-anchor="middle" x="65.57" y="-131.4" font-family="Arial" font-size="14.00">(Java::Class)</text>
        </g>
        <!-- Cloudinary -->
        <g id="node2" class="node">
            <title>Cloudinary</title>
            <path fill="#fff5cd" stroke="black" stroke-width="2"
                  d="M131.14,-65.45C131.14,-69.07 101.75,-72 65.57,-72 29.39,-72 0,-69.07 0,-65.45 0,-65.45 0,-6.55 0,-6.55 0,-2.93 29.39,0 65.57,0 101.75,0 131.14,-2.93 131.14,-6.55 131.14,-6.55 131.14,-65.45 131.14,-65.45"/>
            <path fill="none" stroke="black" stroke-width="2"
                  d="M131.14,-65.45C131.14,-61.84 101.75,-58.91 65.57,-58.91 29.39,-58.91 0,-61.84 0,-65.45"/>
            <text text-anchor="middle" x="65.57" y="-40.2" font-family="Arial" font-size="14.00">Cloudinary</text>
            <text text-anchor="middle" x="65.57" y="-23.4" font-family="Arial" font-size="14.00">(External::Service)
            </text>
        </g>
        <!-- CloudinaryService&#45;&gt;Cloudinary -->
        <g id="edge1" class="edge">
            <title>CloudinaryServices&#45;&gt;Cloudinary</title>
            <path fill="none" stroke="black" d="M65.57,-107.7C65.57,-99.93 65.57,-91.57 65.57,-83.43"/>
            <polygon fill="black" stroke="black" points="69.07,-83.66 65.57,-73.66 62.07,-83.66 69.07,-83.66"/>
        </g>
    </g>
</svg>
